<svg aria-hidden="true" version="1.1" xmlns="http://www.w3.org/2000/svg" xmlns:xlink="http://www.w3.org/1999/xlink">
<defs>
<symbol id="icon-reset" viewBox="0 0 32 32">
<path d="M32 12h-12l4.485-4.485c-2.267-2.266-5.28-3.515-8.485-3.515s-6.219 1.248-8.485 3.515c-2.266 2.267-3.515 5.28-3.515 8.485s1.248 6.219 3.515 8.485c2.267 2.266 5.28 3.515 8.485 3.515s6.219-1.248 8.485-3.515c0.189-0.189 0.371-0.384 0.546-0.583l3.010 2.634c-2.933 3.349-7.239 5.464-12.041 5.464-8.837 0-16-7.163-16-16s7.163-16 16-16c4.418 0 8.418 1.791 11.313 4.687l4.687-4.687v12z"></path>
</symbol>
<symbol id="icon-exit" viewBox="0 0 32 32">
<path d="M507.331 411.33c-0.002-0.002-0.004-0.004-0.006-0.005l-155.322-155.325 155.322-155.325c0.002-0.002 0.004-0.003 0.006-0.005 1.672-1.673 2.881-3.627 3.656-5.708 2.123-5.688 0.912-12.341-3.662-16.915l-73.373-73.373c-4.574-4.573-11.225-5.783-16.914-3.66-2.080 0.775-4.035 1.984-5.709 3.655 0 0.002-0.002 0.003-0.004 0.005l-155.324 155.326-155.324-155.325c-0.002-0.002-0.003-0.003-0.005-0.005-1.673-1.671-3.627-2.88-5.707-3.655-5.69-2.124-12.341-0.913-16.915 3.66l-73.374 73.374c-4.574 4.574-5.784 11.226-3.661 16.914 0.776 2.080 1.985 4.036 3.656 5.708 0.002 0.001 0.003 0.003 0.005 0.005l155.325 155.324-155.325 155.326c-0.001 0.002-0.003 0.003-0.004 0.005-1.671 1.673-2.88 3.627-3.657 5.707-2.124 5.688-0.913 12.341 3.661 16.915l73.374 73.373c4.575 4.574 11.226 5.784 16.915 3.661 2.080-0.776 4.035-1.985 5.708-3.656 0.001-0.002 0.003-0.003 0.005-0.005l155.324-155.325 155.324 155.325c0.002 0.001 0.004 0.003 0.006 0.004 1.674 1.672 3.627 2.881 5.707 3.657 5.689 2.123 12.342 0.913 16.914-3.661l73.373-73.374c4.574-4.574 5.785-11.227 3.662-16.915-0.776-2.080-1.985-4.034-3.657-5.707z"></path>
</symbol>
</defs>
</svg>
